<svg width="460" height="340" viewBox="0 0 460 340" fill="none" xmlns="http://www.w3.org/2000/svg">
<rect width="460" height="340" fill="#E5E5E5"/>
<g id="sc2-eleven-industries">
<rect width="460" height="340" fill="#0E4A3C"/>
<rect id="bar-g1-0" x="52" y="114" width="26" height="168" rx="6" fill="white" fill-opacity="0.18"/>
<rect id="bar-g2-1" x="88" y="218" width="26" height="64" rx="6" fill="white" fill-opacity="0.18"/>
<rect id="bar-g2-2" x="124" y="162" width="26" height="120" rx="6" fill="white" fill-opacity="0.18"/>
<rect id="bar-g2-3" x="160" y="228" width="26" height="54" rx="6" fill="white" fill-opacity="0.18"/>
<rect id="bar-g2-4" x="196" y="186" width="26" height="96" rx="6" fill="white" fill-opacity="0.18"/>
<rect id="bar-g3-5" x="232" y="142" width="26" height="140" rx="6" fill="white" fill-opacity="0.18"/>
<rect id="bar-g3-6" x="268" y="194" width="26" height="88" rx="6" fill="white" fill-opacity="0.18"/>
<rect id="bar-g3-7" x="304" y="172" width="26" height="110" rx="6" fill="white" fill-opacity="0.18"/>
<rect id="bar-g3-8" x="340" y="206" width="26" height="76" rx="6" fill="white" fill-opacity="0.18"/>
<rect id="bar-g3-9" x="376" y="150" width="26" height="132" rx="6" fill="white" fill-opacity="0.18"/>
<rect id="bar-g3-10" x="412" y="222" width="26" height="60" rx="6" fill="white" fill-opacity="0.18"/>
<rect id="baseline" x="52" y="288" width="356" height="1" fill="white" fill-opacity="0.22"/>
<text id="lbl-primary" x="65" y="312" font-family="Public Sans" font-weight="600" font-size="11" letter-spacing="0.88" fill="white" fill-opacity="0.62" text-anchor="middle">PRIMARY</text>
<text id="lbl-secondary" x="155" y="312" font-family="Public Sans" font-weight="600" font-size="11" letter-spacing="0.88" fill="white" fill-opacity="0.62" text-anchor="middle">SECONDARY</text>
<text id="lbl-tertiary" x="335" y="312" font-family="Public Sans" font-weight="600" font-size="11" letter-spacing="0.88" fill="white" fill-opacity="0.62" text-anchor="middle">TERTIARY</text>
</g>
</svg>
